<svg id="flat" height="512" viewBox="0 0 128 128" width="512" xmlns="http://www.w3.org/2000/svg"><path d="m126.032 56.584a29.335 29.335 0 0 0 -15.164-20.064c-19.117-9.968-45.109-8.935-46.858-8.853-1.749-.082-27.741-1.115-46.858 8.853a29.335 29.335 0 0 0 -15.164 20.064 64.882 64.882 0 0 0 -.972 6.542 2.923 2.923 0 0 0 2.912 3.2h21.212a2.922 2.922 0 0 0 2.888-2.478l1.312-8.527a9.734 9.734 0 0 1 6.56-7.793c5.5-1.8 14.91-3.941 28.008-3.594h.2c13.1-.347 22.51 1.791 28.008 3.594a9.734 9.734 0 0 1 6.56 7.793l1.285 8.351a3.13 3.13 0 0 0 3.094 2.654h20.805a3.124 3.124 0 0 0 3.117-3.424c-.234-2.323-.558-4.429-.945-6.318z" fill="#86be7a"/><path d="m126.985 62.9a3.137 3.137 0 0 1 -3.125 3.426h-20.8a3.141 3.141 0 0 1 -3.095-2.654l-1.282-8.353a9.733 9.733 0 0 0 -6.56-7.792 81.089 81.089 0 0 0 -25.188-3.635c-.921 0-1.863.01-2.824.04h-.2c-13.1-.351-22.515 1.792-28.013 3.6a9.733 9.733 0 0 0 -6.56 7.792l-1.312 8.523a2.918 2.918 0 0 1 -2.884 2.484h-21.213a2.93 2.93 0 0 1 -2.915-3.205c.071-.741.161-1.462.251-2.154h19.82a3.15 3.15 0 0 0 3.2-2.483l1.442-8.523a10.072 10.072 0 0 1 7.251-7.792c6.069-1.8 16.465-3.946 30.927-3.595h.22c1.061-.03 2.1-.04 3.115-.04a98.172 98.172 0 0 1 27.822 3.635 10.061 10.061 0 0 1 7.241 7.792l1.422 8.352a3.359 3.359 0 0 0 3.415 2.654h19.62c.085.628.155 1.269.225 1.928z" fill="#73a068"/><path d="m2.216 55.609-.023.018a62.8 62.8 0 0 0 -1.176 7.485 2.931 2.931 0 0 0 2.911 3.214h21.212a2.922 2.922 0 0 0 2.888-2.478l1.272-8.239z" fill="#73a068"/><path d="m125.827 55.627-.023-.018h-27.08l1.241 8.063a3.13 3.13 0 0 0 3.094 2.654h20.8a3.134 3.134 0 0 0 3.117-3.44 62.615 62.615 0 0 0 -1.149-7.259z" fill="#73a068"/><path d="m14.666 105.783v10.168a5.149 5.149 0 0 0 5.149 5.149h88.39a5.149 5.149 0 0 0 5.149-5.149v-10.168z" fill="#86be7a"/><g opacity=".5"><path d="m113.354 105.787v10.166a5.145 5.145 0 0 1 -5.147 5.147h-88.394a5.132 5.132 0 0 1 -5.088-4.416h87.613a5.155 5.155 0 0 0 5.147-5.158v-5.739z" fill="#73a068"/></g><path d="m95.253 55.285h-8.307v-9.259a4.226 4.226 0 0 0 -4.225-4.226 4.225 4.225 0 0 0 -4.221 4.226v9.259h-28.976v-9.259a4.225 4.225 0 0 0 -4.224-4.226 4.226 4.226 0 0 0 -4.225 4.225v9.259h-8.308a6.072 6.072 0 0 0 -5.867 4.516l-12.234 45.983h98.688l-12.234-45.983a6.072 6.072 0 0 0 -5.867-4.515z" fill="#86be7a"/><g opacity=".5"><path d="m113.354 105.787h-98.689l1.683-6.319h89.164l-11.757-44.187h1.5a6.064 6.064 0 0 1 5.859 4.517z" fill="#73a068"/></g><ellipse cx="64.01" cy="77.712" fill="#d9e2e9" rx="21.554" ry="17.349"/><g fill="#43567c"><ellipse cx="64.01" cy="77.712" rx="7.559" ry="6.084"/><path d="m64.01 63.608a2.421 2.421 0 1 0 2.938 2.365 2.7 2.7 0 0 0 -2.938-2.365z"/><path d="m64.01 87.085a2.421 2.421 0 1 0 2.938 2.365 2.7 2.7 0 0 0 -2.938-2.365z"/><path d="m81.533 77.712a3.008 3.008 0 1 0 -2.939 2.365 2.7 2.7 0 0 0 2.939-2.365z"/><path d="m52.364 77.712a2.7 2.7 0 0 0 -2.938-2.365 2.421 2.421 0 1 0 0 4.73 2.7 2.7 0 0 0 2.938-2.365z"/><path d="m76.4 67.739a3.461 3.461 0 0 0 -4.155 0 2.054 2.054 0 0 0 0 3.344 3.461 3.461 0 0 0 4.155 0 2.054 2.054 0 0 0 0-3.344z"/><path d="m55.775 84.34a3.461 3.461 0 0 0 -4.155 0 2.055 2.055 0 0 0 0 3.345 3.464 3.464 0 0 0 4.155 0 2.055 2.055 0 0 0 0-3.345z"/><path d="m76.4 87.685a2.055 2.055 0 0 0 0-3.345 3.461 3.461 0 0 0 -4.155 0 2.056 2.056 0 0 0 0 3.345 3.464 3.464 0 0 0 4.155 0z"/><path d="m55.775 71.083a2.054 2.054 0 0 0 0-3.344 3.461 3.461 0 0 0 -4.155 0 2.054 2.054 0 0 0 0 3.344 3.461 3.461 0 0 0 4.155 0z"/></g><path d="m94.154 121.1v3.674a1.134 1.134 0 0 0 1.133 1.134h11.066a1.134 1.134 0 0 0 1.133-1.134v-3.674z" fill="#86be7a"/><path d="m20.534 121.1v3.674a1.134 1.134 0 0 0 1.133 1.134h11.066a1.134 1.134 0 0 0 1.133-1.134v-3.674z" fill="#86be7a"/><path d="m42.026 12.542a1 1 0 0 1 -.707-1.708 33.261 33.261 0 0 1 47.038 0 1 1 0 1 1 -1.414 1.414 31.26 31.26 0 0 0 -44.21 0 1 1 0 0 1 -.707.294z" fill="#84879c"/><path d="m79.338 17.835a.993.993 0 0 1 -.707-.293 19.507 19.507 0 0 0 -27.586 0 1 1 0 0 1 -1.414-1.414 21.506 21.506 0 0 1 30.414 0 1 1 0 0 1 -.707 1.707z" fill="#84879c"/><path d="m70.184 23.618a1 1 0 0 1 -.707-.293 6.569 6.569 0 0 0 -9.278 0 1 1 0 1 1 -1.414-1.414 8.571 8.571 0 0 1 12.106 0 1 1 0 0 1 -.707 1.707z" fill="#84879c"/></svg>